<svg  version="1.0" xmlns="http://www.w3.org/2000/svg" width="100%" height="100%" viewBox="0 0 340 250" preserveAspectRatio="xMidYMid meet" color-interpolation-filters="sRGB" ><rect x="0" y="0" width="100%" height="100%" fill="#fff" fill-opacity="1"></rect><g class="c_box"><svg j_control="icon"  xmlns="http://www.w3.org/2000/svg" x="40.83924999999999" y="85"   width="69.44" height="80"> <svg xmlns="http://www.w3.org/2000/svg" viewBox="0 0 64.15 73.91"><title>&#x8D44;&#x6E90; 33</title><path d="M4 18.46l9.85-6.57Q22.49 6.13 31.14.35A1.37 1.37 0 0 1 33 .33q13.09 8.82 26.27 17.58c.21.15.41.32.73.57-.38.29-.69.54-1 .76l-26 17.4a1.37 1.37 0 0 1-1.8 0c-2.48-1.72-5-3.36-7.51-5-.34-.23-.67-.47-1.2-.85l12.41-8.36 3.28 2.12 6.07-12.12H20l6.06 4.11c-.46.33-.77.57-1.1.78-3.51 2.35-7 4.68-10.52 7.05a1.28 1.28 0 0 1-1.7 0C10.21 22.64 7.61 21 5 19.24c-.26-.24-.55-.44-1-.78z" fill="#25c8fc"/><path d="M64.07 46.14v6.2c0 .34-.45.74-.8 1L39.73 69c-2.28 1.53-4.58 3-6.85 4.59a1.2 1.2 0 0 1-1.59 0Q16.13 63.48.91 53.39A1.7 1.7 0 0 1 0 51.85V28.79a7.6 7.6 0 0 1 .12-1c.39.21.69.35 1 .52 2.23 1.48 4.44 3 6.69 4.44a1.84 1.84 0 0 1 .93 1.75v16a2.12 2.12 0 0 0 1.09 2L31.1 66.8a1.42 1.42 0 0 0 1.88 0q15.09-10.1 30.19-20.13c.22-.14.44-.26.9-.53z" fill="#0b1f6b"/><path d="M18.52 40c.55.34.86.52 1.16.72 3.8 2.53 7.61 5 11.37 7.61a1.5 1.5 0 0 0 2 0q14.7-9.84 29.44-19.62l1.58-1a30.89 30.89 0 0 0 0 3.88c.3 2.11-.6 3.28-2.35 4.42-9.52 6.22-19 12.58-28.41 18.93a1.87 1.87 0 0 1-2.48.05c-3.82-2.63-7.69-5.19-11.56-7.73a1.53 1.53 0 0 1-.78-1.48c.06-1.87.03-3.68.03-5.78z" fill="#0b1f6b"/></svg> </svg><g   j_control="title"   transform="translate(125.36574999999999,100.31625)"> <path d="M22.49 4.06L11.96 4.06Q9.33 4.06 8.22 6.37L8.22 6.37Q7.48 7.83 7.48 9.85L7.48 9.85L7.48 24.38Q7.48 26.39 8.22 27.85L8.22 27.85Q9.33 30.16 11.96 30.16L11.96 30.16L22.49 30.16L22.49 31.14L10.43 31.14Q6.47 31.14 4.00 28.47L4.00 28.47Q1.56 25.77 1.56 21.45L1.56 21.45L1.56 12.77Q1.56 8.45 4.00 5.75L4.00 5.75Q6.47 3.09 10.43 3.09L10.43 3.09L22.49 3.09L22.49 4.06ZM31.33 11.64L38.35 11.64Q41.11 11.64 42.84 13.49L42.84 13.49Q44.53 15.34 44.53 18.36L44.53 18.36L44.53 24.41Q44.53 27.43 42.84 29.28L42.84 29.28Q41.11 31.14 38.35 31.14L38.35 31.14L31.33 31.14Q28.57 31.14 26.88 29.28L26.88 29.28Q25.16 27.43 25.16 24.41L25.16 24.41L25.16 18.36Q25.16 15.34 26.88 13.49L26.88 13.49Q28.57 11.64 31.33 11.64L31.33 11.64ZM38.97 26.29L38.97 16.48Q38.97 14.95 38.09 13.88L38.09 13.88Q37.02 12.61 35.10 12.61L35.10 12.61L34.65 12.61Q32.73 12.61 31.66 13.88L31.66 13.88Q30.78 14.95 30.78 16.48L30.78 16.48L30.78 26.29Q30.78 27.69 31.56 28.76L31.56 28.76Q32.60 30.16 34.65 30.16L34.65 30.16L35.10 30.16Q37.12 30.16 38.16 28.76L38.16 28.76Q38.97 27.69 38.97 26.29L38.97 26.29ZM59.02 11.60L65.46 11.60Q74.30 11.60 74.30 19.50L74.30 19.50L74.30 31.17L68.77 31.17L68.77 18.36Q68.77 12.58 64.12 12.58L64.12 12.58L64.09 12.58L64.09 31.17L58.57 31.17L58.57 20.70Q58.57 12.97 53.53 12.61L53.53 12.61L53.53 31.17L48.00 31.17L48.00 11.60L53.76 11.60Q56.68 11.60 59.02 12.81L59.02 12.81L59.02 11.60ZM94.19 16.61Q96.88 17.19 98.44 18.85L98.44 18.85Q100.10 20.61 100.10 23.24L100.10 23.24Q100.10 31.10 90.51 31.10L90.51 31.10L78.29 31.10L78.29 3.09L90.90 3.09Q94.12 3.09 96.27 4.68L96.27 4.68Q98.77 6.57 98.77 10.21L98.77 10.21Q98.77 15.08 94.19 16.61L94.19 16.61ZM86.97 4.06L83.82 4.06L83.82 16.35L86.97 16.35Q89.83 16.35 91.45 14.72L91.45 14.72Q93.11 13.07 93.11 10.21L93.11 10.21Q93.11 4.06 86.97 4.06L86.97 4.06ZM83.82 30.13L87.72 30.13Q90.67 30.13 92.53 28.37L92.53 28.37Q94.44 26.52 94.44 23.43L94.44 23.43Q94.44 20.57 92.43 18.85L92.43 18.85Q90.55 17.29 87.72 17.29L87.72 17.29L83.82 17.29L83.82 30.13ZM109.43 11.64L116.45 11.64Q119.21 11.64 120.93 13.49L120.93 13.49Q122.62 15.34 122.62 18.36L122.62 18.36L122.62 24.41Q122.62 27.43 120.93 29.28L120.93 29.28Q119.21 31.14 116.45 31.14L116.45 31.14L109.43 31.14Q106.66 31.14 104.97 29.28L104.97 29.28Q103.25 27.43 103.25 24.41L103.25 24.41L103.25 18.36Q103.25 15.34 104.97 13.49L104.97 13.49Q106.66 11.64 109.43 11.64L109.43 11.64ZM117.06 26.29L117.06 16.48Q117.06 14.95 116.19 13.88L116.19 13.88Q115.11 12.61 113.20 12.61L113.20 12.61L112.74 12.61Q110.82 12.61 109.75 13.88L109.75 13.88Q108.87 14.95 108.87 16.48L108.87 16.48L108.87 26.29Q108.87 27.69 109.65 28.76L109.65 28.76Q110.69 30.16 112.74 30.16L112.74 30.16L113.20 30.16Q115.21 30.16 116.25 28.76L116.25 28.76Q117.06 27.69 117.06 26.29L117.06 26.29ZM131.75 11.64L138.78 11.64Q141.54 11.64 143.26 13.49L143.26 13.49Q144.95 15.34 144.95 18.36L144.95 18.36L144.95 24.41Q144.95 27.43 143.26 29.28L143.26 29.28Q141.54 31.14 138.78 31.14L138.78 31.14L131.75 31.14Q128.99 31.14 127.30 29.28L127.30 29.28Q125.58 27.43 125.58 24.41L125.58 24.41L125.58 18.36Q125.58 15.34 127.30 13.49L127.30 13.49Q128.99 11.64 131.75 11.64L131.75 11.64ZM139.39 26.29L139.39 16.48Q139.39 14.95 138.51 13.88L138.51 13.88Q137.44 12.61 135.53 12.61L135.53 12.61L135.07 12.61Q133.15 12.61 132.08 13.88L132.08 13.88Q131.20 14.95 131.20 16.48L131.20 16.48L131.20 26.29Q131.20 27.69 131.98 28.76L131.98 28.76Q133.02 30.16 135.07 30.16L135.07 30.16L135.53 30.16Q137.54 30.16 138.58 28.76L138.58 28.76Q139.39 27.69 139.39 26.29L139.39 26.29ZM160.00 21.16L167.21 31.33L161.72 31.33L157.23 25.06L152.78 31.33L147.26 31.33L154.47 21.16L147.65 11.57L153.20 11.57L157.23 17.29L161.30 11.57L166.82 11.57L160.00 21.16Z"  fill="#0b1f6b" stroke="none" stroke-linejoin ="round" stroke-width="0"  transform="translate(-1.56,-3.087500000000002)"/> </g><g   j_control="slogan"   transform="translate(117.22325,134.55875)"> <path d="M1.19 2.94L2.75 2.94L2.75 13L8.56 13L8.56 14.38L1.19 14.38L1.19 2.94ZM9.94 6L11.38 6L11.38 14.38L9.94 14.38L9.94 6ZM11.38 2.94L11.38 4.50L9.94 4.50L9.94 2.94L11.38 2.94ZM20.19 8.69L20.19 8.69L20.19 14.38L18.81 14.38L18.81 9.25Q18.94 6.94 17 7.06L17 7.06Q14.88 7.19 14.81 9.81L14.81 9.81L14.81 14.38L13.38 14.38L13.38 6L14.75 6L14.75 7.19Q15.75 5.75 17.31 5.75L17.31 5.75Q20.13 5.81 20.19 8.69ZM29.06 6L25.88 9.13L29.25 14.38L27.44 14.38L24.81 10.13L23.69 11.25L23.69 14.38L22.31 14.38L22.31 2.94L23.69 2.94L23.69 9.56L27.31 6L29.06 6ZM30.31 6L31.75 6L31.75 14.38L30.31 14.38L30.31 6ZM31.75 2.94L31.75 4.50L30.31 4.50L30.31 2.94L31.75 2.94ZM40.56 8.69L40.56 8.69L40.56 14.38L39.19 14.38L39.19 9.25Q39.31 6.94 37.38 7.06L37.38 7.06Q35.25 7.19 35.19 9.81L35.19 9.81L35.19 14.38L33.75 14.38L33.75 6L35.13 6L35.13 7.19Q36.13 5.75 37.69 5.75L37.69 5.75Q40.50 5.81 40.56 8.69ZM43.75 10.19L43.75 10.19Q43.81 13.38 46 13.44L46 13.44Q48.19 13.25 48.25 10.63L48.25 10.63Q48.31 7.06 46 7.06L46 7.06Q43.69 7.06 43.75 10.19ZM48.25 6L49.56 6L49.56 13.69Q49.69 17.75 45.75 17.75L45.75 17.75Q42.81 17.75 42.50 15.25L42.50 15.25L43.94 15.25Q44.19 16.63 45.81 16.63L45.81 16.63Q48.31 16.63 48.19 13.81L48.19 13.81L48.19 13.44L48.19 13.50Q47.44 14.50 45.94 14.50L45.94 14.50Q42.44 14.38 42.25 9.94L42.25 9.94Q42.44 5.94 45.75 5.75L45.75 5.75Q47.31 5.75 48.25 7.19L48.25 7.19L48.25 6ZM62.50 4.88L62.44 4.88L59.81 14.38L58.19 14.38L55.19 2.94L56.81 2.94L59 12.25L59.06 12.25L61.63 2.94L63.31 2.94L65.88 12.25L65.94 12.25L68.06 2.94L69.75 2.94L66.75 14.38L65.13 14.38L62.50 4.88ZM76.75 11.75L76.75 11.75L78.13 11.75Q77.88 13.19 76.63 14.06L76.63 14.06Q75.94 14.50 74.38 14.50L74.38 14.50Q70.81 14.38 70.63 10.44L70.63 10.44Q70.75 5.88 74.63 5.75L74.63 5.75Q78.19 5.81 78.25 10.69L78.25 10.69L72.13 10.69Q72.13 13.44 74.56 13.44L74.56 13.44Q76.31 13.31 76.75 11.75ZM72.13 9.56L72.13 9.56L76.81 9.56Q76.63 7.06 74.44 7.06L74.44 7.06Q72.38 7.25 72.13 9.56ZM81.13 13.38L81.13 14.38L79.81 14.38L79.81 2.94L81.19 2.94L81.19 7.06L81.25 7.06Q82 5.81 83.63 5.75L83.63 5.75Q86.94 5.94 87.13 9.94L87.13 9.94Q86.94 14.38 83.44 14.50L83.44 14.50Q81.88 14.50 81.19 13.38L81.19 13.38L81.13 13.38ZM85.69 10.19L85.69 10.19Q85.75 7.06 83.38 7.06L83.38 7.06Q81.13 7.06 81.13 10.63L81.13 10.63Q81.19 13.25 83.44 13.44L83.44 13.44Q85.63 13.38 85.69 10.19ZM91.31 9.19L91.31 9.19L91.31 8Q91.69 8 92.06 8L92.06 8Q94.13 7.94 94.19 6.19L94.19 6.19Q94.06 4.50 92.13 4.44L92.13 4.44Q90 4.44 89.94 6.81L89.94 6.81L88.56 6.81Q88.63 3.19 92.19 3.13L92.19 3.13Q95.44 3.25 95.63 6.06L95.63 6.06Q95.63 7.81 94.25 8.44L94.25 8.44L94.25 8.50Q96.13 9.06 96.13 11.06L96.13 11.06Q95.94 14.44 92.06 14.56L92.06 14.56Q90.75 14.56 90 14.19L90 14.19Q88.38 13.44 88.31 10.94L88.31 10.94L89.75 10.94Q89.81 13.44 92.13 13.44L92.13 13.44Q94.44 13.31 94.56 11.25L94.56 11.25Q94.56 9.19 92 9.19L92 9.19Q91.63 9.19 91.31 9.19ZM111.81 6.31L111.81 6.31L110.31 6.31Q109.75 4 107.13 3.94L107.13 3.94Q103.50 4.13 103.38 8.56L103.38 8.56Q103.38 13.31 107.19 13.31L107.19 13.31Q109.81 13.25 110.44 10.13L110.44 10.13L111.94 10.13Q111.25 14.44 106.88 14.56L106.88 14.56Q101.88 14.38 101.75 8.63L101.75 8.63Q102 2.88 107.13 2.63L107.13 2.63Q111.19 2.75 111.81 6.31ZM114.88 8.56L114.88 8.56L113.56 8.56Q113.63 5.75 117 5.75L117 5.75Q120 5.88 120.06 8.13L120.06 8.13L120.06 12.94Q120.06 13.44 120.56 13.44L120.56 13.44Q120.63 13.44 120.75 13.44L120.75 13.44Q120.94 13.38 121.06 13.38L121.06 13.38L121.06 14.38Q120.94 14.38 120.75 14.38L120.75 14.38Q120.44 14.44 120.25 14.44L120.25 14.44Q118.75 14.44 118.81 13.25L118.81 13.25Q117.56 14.50 115.75 14.50L115.75 14.50Q113.25 14.38 113.13 12.19L113.13 12.19Q113.19 9.94 115.69 9.56L115.69 9.56L118 9.31Q118.75 9.19 118.75 8.31L118.75 8.31Q118.75 6.94 116.75 6.94L116.75 6.94Q115 6.94 114.88 8.56ZM118.69 11.50L118.69 11.50L118.69 10.13Q118.19 10.44 116.38 10.69L116.38 10.69Q114.63 10.81 114.63 12L114.63 12Q114.63 13.44 116.06 13.44L116.06 13.44Q118.50 13.25 118.69 11.50ZM123.69 10.63L123.69 10.63Q123.75 13.25 126 13.44L126 13.44Q128.19 13.38 128.25 10.19L128.25 10.19Q128.31 7.06 125.94 7.06L125.94 7.06Q123.69 7.06 123.69 10.63ZM123.75 17.56L122.38 17.56L122.38 6L123.69 6L123.69 7.19L123.75 7.19Q123.75 7.19 123.81 7.13L123.81 7.13Q124.69 5.75 126.19 5.75L126.19 5.75Q129.50 5.94 129.69 9.94L129.69 9.94Q129.50 14.38 126 14.50L126 14.50Q124.56 14.50 123.81 13.50L123.81 13.50L123.75 13.50L123.75 17.56ZM146.94 2.94L146.94 14.38L145.44 14.38L145.44 7.63Q145.44 6.69 145.44 4.75L145.44 4.75L142.19 14.38L140.63 14.38L137.44 4.75L137.38 4.75Q137.38 5.44 137.44 6.81L137.44 6.81Q137.44 7.50 137.44 7.63L137.44 7.63L137.44 14.38L135.88 14.38L135.88 2.94L138.13 2.94L141.44 12.63L144.69 2.94L146.94 2.94ZM150.31 8.56L150.31 8.56L149 8.56Q149.06 5.75 152.44 5.75L152.44 5.75Q155.44 5.88 155.50 8.13L155.50 8.13L155.50 12.94Q155.50 13.44 156 13.44L156 13.44Q156.06 13.44 156.19 13.44L156.19 13.44Q156.38 13.38 156.50 13.38L156.50 13.38L156.50 14.38Q156.38 14.38 156.19 14.38L156.19 14.38Q155.88 14.44 155.69 14.44L155.69 14.44Q154.19 14.44 154.25 13.25L154.25 13.25Q153 14.50 151.19 14.50L151.19 14.50Q148.69 14.38 148.56 12.19L148.56 12.19Q148.63 9.94 151.13 9.56L151.13 9.56L153.44 9.31Q154.19 9.19 154.19 8.31L154.19 8.31Q154.19 6.94 152.19 6.94L152.19 6.94Q150.44 6.94 150.31 8.56ZM154.13 11.50L154.13 11.50L154.13 10.13Q153.63 10.44 151.81 10.69L151.81 10.69Q150.06 10.81 150.06 12L150.06 12Q150.06 13.44 151.50 13.44L151.50 13.44Q153.94 13.25 154.13 11.50ZM159.50 9.50L159.50 9.50L159.50 14.38L158.06 14.38L158.06 6L159.44 6L159.44 7.44Q160.38 5.75 161.81 5.75L161.81 5.75Q161.94 5.75 162.06 5.81L162.06 5.81Q162.13 5.81 162.19 5.81L162.19 5.81L162.19 7.31L161.63 7.31Q159.63 7.44 159.50 9.50ZM169.94 6L166.75 9.13L170.13 14.38L168.31 14.38L165.69 10.13L164.56 11.25L164.56 14.38L163.19 14.38L163.19 2.94L164.56 2.94L164.56 9.56L168.19 6L169.94 6ZM176.88 11.75L176.88 11.75L178.25 11.75Q178 13.19 176.75 14.06L176.75 14.06Q176.06 14.50 174.50 14.50L174.50 14.50Q170.94 14.38 170.75 10.44L170.75 10.44Q170.88 5.88 174.75 5.75L174.75 5.75Q178.31 5.81 178.38 10.69L178.38 10.69L172.25 10.69Q172.25 13.44 174.69 13.44L174.69 13.44Q176.44 13.31 176.88 11.75ZM172.25 9.56L172.25 9.56L176.94 9.56Q176.75 7.06 174.56 7.06L174.56 7.06Q172.50 7.25 172.25 9.56ZM183.13 6L183.13 7.19L181.75 7.19L181.75 12.63Q181.75 13.31 182.56 13.31L182.56 13.31L183.13 13.31L183.13 14.38Q182.75 14.38 182.25 14.38L182.25 14.38Q182.13 14.38 182.06 14.38L182.06 14.38Q180.25 14.38 180.31 12.75L180.31 12.75L180.31 7.19L179.25 7.19L179.25 6L180.31 6L180.31 3.69L181.75 3.69L181.75 6L183.13 6Z"  fill="#25c8fc" stroke="none" stroke-linejoin ="round" stroke-width="0"  transform="translate(-1.1875,-2.625)"/> </g></g> <defs></defs> </svg>